<svg xmlns="http://www.w3.org/2000/svg" width="61" height="61" viewBox="0 0 61 61"><defs><style>.a{fill:none;}.b{fill:#35ae59;fill-rule:evenodd;}</style></defs><g transform="translate(-24 -242)"><rect class="a" width="61" height="61" transform="translate(24 242)"/><path class="b" d="M7.53,18.825V52.711H52.711V18.825ZM48.946,7.53h7.53A3.557,3.557,0,0,1,60.241,11.3V56.476a3.557,3.557,0,0,1-3.765,3.765H3.765A3.557,3.557,0,0,1,0,56.476V11.3A3.557,3.557,0,0,1,3.765,7.53H11.3V3.765A3.557,3.557,0,0,1,15.06,0a3.557,3.557,0,0,1,3.765,3.765V7.53H41.416V3.765a3.765,3.765,0,0,1,7.53,0ZM45.181,45.181h-7.53v-7.53h7.53Zm-11.3,0h-7.53v-7.53h7.53Zm11.3-11.3h-7.53v-7.53h7.53Zm-11.3,0h-7.53v-7.53h7.53Zm-11.3,11.3H15.06v-7.53h7.53Z" transform="translate(24 242)"/></g></svg>