<svg xmlns="http://www.w3.org/2000/svg" width="43.93" height="52.659" viewBox="0 0 43.93 52.659"><defs><style>.a{fill:red;}</style></defs><path class="a" d="M33.617,24.853l-6.652,6.2-6.684-6.2-4.424,4.125,6.684,6.2-6.652,6.2,4.424,4.125,6.652-6.2,6.652,6.2,4.424-4.125-6.652-6.2,6.652-6.2Zm4.33-18.928L34.81,3H19.12L15.982,5.925H5v5.851H48.93V5.925ZM8.138,49.808a6.092,6.092,0,0,0,6.276,5.851h25.1a6.092,6.092,0,0,0,6.276-5.851V14.7H8.138Zm6.276-29.255h25.1V49.808h-25.1Z" transform="translate(-5 -3)"/></svg>